<svg width="1280" height="640" viewBox="0 0 1280 640" xmlns="http://www.w3.org/2000/svg"><defs><pattern id="satori_pattern_id_0" x="0" y="0" width="1" height="1" patternUnits="objectBoundingBox"><linearGradient id="satori_biid_0" x1="0" y1="0" x2="0" y2="1"><stop offset="0%" stop-color="#0f172a"/><stop offset="100%" stop-color="#334155"/></linearGradient><rect x="0" y="0" width="1280" height="640" fill="url(#satori_biid_0)"/></pattern></defs><rect x="0" y="0" width="1280" height="640" fill="url(#satori_pattern_id_0)"/><clipPath id="satori_cp-id-0-0"><rect x="528" y="137" width="224" height="256"/></clipPath><mask id="satori_om-id-0-0"><rect x="528" y="137" width="224" height="256" fill="#fff"/></mask><image x="528" y="137" width="224" height="256" href="data:image/svg+xml;utf8,%3Csvg  fill=%22white%22 xmlns=%22http://www.w3.org/2000/svg%22 width=%22224.09968847352025%22 height=%22256%22 viewBox=%22-0.5 -0.5 281 321%22%3E%3Cg%3E%3Cpath d=%22M 150,250 470,10 V -30 L 150,210 Z%22 transform=%22rotate(90,200,50)%22%3E%3C/path%3E%3Cpath d=%22m 430,210 -20,-40 20,-40 z m 0,30 v -70 h 20 v 70 z m 0,-110 40,80 v 40 L 430,170 Z M 150,250 v -40 h 320 v 40 z%22 transform=%22rotate(90,200,50)%22%3E%3C/path%3E%3Cpath d=%22m 190,10 20,40 -20,40 z m -20,40 v -70 h 20 v 70 z m 20,40 -40,-80 v -40 l 40,80 z M 150,10 v -40 h 320 v 40 z%22 transform=%22rotate(90,200,50)%22%3E%3C/path%3E%3C/g%3E%3C/svg%3E" preserveAspectRatio="none" clip-path="url(#satori_cp-id-0-0)" mask="url(#satori_om-id-0-0)"/><path fill="#e6e6e6" d="M483.2 438.4L493.0 438.4L493.0 484.9L484.5 484.9L464.2 455.6L463.9 455.6L463.9 484.9L454.0 484.9L454.0 438.4L462.7 438.4L482.8 467.6L483.2 467.6L483.2 438.4ZM534.5 484.9L503.1 484.9L503.1 438.4L534.5 438.4L534.5 446.5L512.9 446.5L512.9 457.6L532.8 457.6L532.8 465.7L512.9 465.7L512.9 476.8L534.5 476.8L534.5 484.9ZM542.4 438.4L553.5 438.4L562.9 454.2L563.3 454.2L572.7 438.4L583.8 438.4L569.6 461.6L584.1 484.9L572.8 484.9L563.3 469.0L562.9 469.0L553.4 484.9L542.1 484.9L556.7 461.6L542.4 438.4ZM604.5 446.5L590.3 446.5L590.3 438.4L628.5 438.4L628.5 446.5L614.2 446.5L614.2 484.9L604.5 484.9L604.5 446.5ZM668.3 484.9L636.8 484.9L636.8 438.4L668.2 438.4L668.2 446.5L646.6 446.5L646.6 457.6L666.5 457.6L666.5 465.7L646.6 465.7L646.6 476.8L668.3 476.8L668.3 484.9ZM687.8 484.9L678 484.9L678 438.4L696.4 438.4Q701.6 438.4 705.4 440.2Q709.1 442.1 711.1 445.5Q713.0 448.9 713.0 453.6L713.0 453.6Q713.0 458.2 711.0 461.5Q709.0 464.9 705.3 466.6Q701.5 468.4 696.1 468.4L696.1 468.4L683.8 468.4L683.8 460.5L694.5 460.5Q697.3 460.5 699.2 459.7Q701.1 458.9 702.0 457.4Q702.9 455.9 702.9 453.6L702.9 453.6Q702.9 451.2 702.0 449.7Q701.1 448.1 699.2 447.2Q697.3 446.4 694.5 446.4L694.5 446.4L687.8 446.4L687.8 484.9ZM692.5 463.7L703.1 463.7L714.7 484.9L703.8 484.9L692.5 463.7ZM722 438.4L731.8 438.4L731.8 484.9L722 484.9L722 438.4ZM761.7 449.0L750.0 484.9L739.4 484.9L755.5 438.4L768.2 438.4L784.2 484.9L773.7 484.9L762.0 449.0L761.7 449.0ZM749.3 474.3L749.3 466.6L774.2 466.6L774.2 474.3L749.3 474.3ZM825.4 451.7L816.0 451.7Q815.7 449.0 813.6 447.5Q811.6 445.9 808.0 445.9L808.0 445.9Q805.6 445.9 804.0 446.6Q802.3 447.3 801.4 448.5Q800.5 449.7 800.5 451.2L800.5 451.2Q800.5 452.4 801.1 453.3Q801.7 454.3 802.7 454.9Q803.7 455.6 805.0 456.1Q806.4 456.6 807.9 456.9L807.9 456.9L812.1 457.9Q815.1 458.6 817.7 459.7Q820.2 460.9 822.1 462.5Q824.0 464.2 825.0 466.4Q826.0 468.7 826.0 471.6L826.0 471.6Q826.0 475.9 823.9 479.0Q821.7 482.1 817.7 483.8Q813.7 485.6 808.0 485.6L808.0 485.6Q802.3 485.6 798.2 483.8Q794.0 482.1 791.7 478.7Q789.3 475.3 789.2 470.3L789.2 470.3L798.8 470.3Q798.9 472.6 800.1 474.2Q801.3 475.7 803.3 476.5Q805.3 477.3 807.9 477.3L807.9 477.3Q810.4 477.3 812.2 476.6Q814.1 475.9 815.1 474.6Q816.1 473.3 816.1 471.6L816.1 471.6Q816.1 470.0 815.2 468.9Q814.3 467.9 812.5 467.1Q810.8 466.4 808.2 465.8L808.2 465.8L803.1 464.5Q797.3 463.1 793.8 460.0Q790.4 457.0 790.5 451.8L790.5 451.8Q790.4 447.6 792.7 444.4Q795.0 441.3 799.0 439.5Q803.0 437.7 808.1 437.7L808.1 437.7Q813.3 437.7 817.1 439.5Q821.0 441.3 823.2 444.4Q825.3 447.6 825.4 451.7L825.4 451.7Z "/></svg>